<svg viewBox="0 0 128 128" xmlns="http://www.w3.org/2000/svg">
  <polygon points="64,20 104,42 104,86 64,108 24,86 24,42" fill="#FAFAF9" stroke="#111111" stroke-width="2"/>
  <polygon points="64,20 104,42 64,64 24,42" fill="#FFFFFF" stroke="#111111" stroke-width="2"/>
  <polygon points="64,64 104,42 104,86 64,108" fill="#EDEDEB" stroke="#111111" stroke-width="2"/>
  <path d="M64 48 C72 60 79 69 79 78 C79 87 72 93 64 93 C56 93 49 87 49 78 C49 69 56 60 64 48 Z" fill="#3B5BFF" stroke="#111111" stroke-width="1.5" stroke-linejoin="round"/>
  <path d="M58 78 C58 82 60 85 64 86" fill="none" stroke="#FFFFFF" stroke-width="2" stroke-linecap="round" opacity="0.7"/>
</svg>
